<!--?xml version="1.0" encoding="utf-8"?-->
<!-- Svg Vector Icons : http://www.onlinewebfonts.com/icon -->

<svg version="1.1" xmlns="http://www.w3.org/2000/svg" xmlns:xlink="http://www.w3.org/1999/xlink" x="0px" y="0px" viewBox="0 0 256 256" enable-background="new 0 0 256 256" xml:space="preserve">
<metadata> Svg Vector Icons : http://www.onlinewebfonts.com/icon </metadata>
<g><g><path fill="#F2F2F2" data-title="Layer 0" xs="0" d="M110.3,145.7c-1.5-1.5-3.7-2.2-5.9-2.2H41c-4.4,0-7.4,3.7-7.4,7.4c0,4.4,5.2,8.8,7.4,11.1l16.2,16.2L10,223.9L32.1,246l46.5-47.2L94.8,215c3.7,3.7,7.4,7.4,11.1,7.4c4.4,0,7.4-3.7,7.4-7.4v-63.4C113.3,148.7,111.8,147.2,110.3,145.7z M200.3,77.9L246,32.1L223.9,10l-45.7,45.7l-16.2-16.2c-3.7-3.7-7.4-7.4-11.1-7.4c-4.4,0-8.1,2.9-8.1,7.4v64.9c0,2.2,0.7,4.4,3,5.9c1.5,1.5,3.7,3,5.9,3h64.9c4.4,0,8.1-3.7,7.4-8.1c0-4.4-5.2-8.8-7.4-11.1L200.3,77.9z"/></g></g>
</svg>